<?xml version="1.0" encoding="utf-8"?>
<!-- Generator: Adobe Illustrator 23.0.1, SVG Export Plug-In . SVG Version: 6.00 Build 0)  -->
<svg version="1.1" id="Layer_1" xmlns="http://www.w3.org/2000/svg" xmlns:xlink="http://www.w3.org/1999/xlink" x="0px" y="0px"
	 viewBox="0 0 400 400" style="enable-background:new 0 0 400 400;" xml:space="preserve">
<style type="text/css">
	.st0{fill:#FFFFFF;}
	.st1{fill:#64A75A;}
</style>
<circle class="st0" cx="200" cy="199" r="190"/>
<g>
	<g>
		<g>
			<path class="st1" d="M291.66,182.34c-1.75-1.75-4.58-1.75-6.33,0L182.05,285.62c-4.79,4.79-11.16,7.43-17.93,7.43
				c-6.77,0-13.14-2.64-17.93-7.43L68.8,208.24l35.86-35.86l12.67,12.67c1.75,1.75,4.58,1.75,6.33,0c1.75-1.75,1.75-4.58,0-6.33
				l-15.84-15.84c-1.75-1.75-4.58-1.75-6.33,0l-42.19,42.19c-1.75,1.75-1.75,4.58,0,6.33l80.54,80.54
				c6.48,6.48,15.1,10.05,24.26,10.05c9.16,0,17.78-3.57,24.26-10.05l103.29-103.29C293.41,186.92,293.41,184.08,291.66,182.34z"/>
		</g>
	</g>
	<g>
		<g>
			<path class="st1" d="M339.56,134.44l-42.19-42.19c-1.75-1.75-4.58-1.75-6.33,0L167,216.28c-0.77,0.77-1.8,1.2-2.89,1.2
				c-1.09,0-2.12-0.42-2.89-1.2l-24.9-24.9c-1.75-1.75-4.58-1.75-6.33,0c-1.75,1.75-1.75,4.58,0,6.33l24.9,24.9
				c2.46,2.46,5.74,3.82,9.22,3.82c3.48,0,6.76-1.36,9.22-3.82L294.2,101.74l35.86,35.86l-32.08,32.08c-1.75,1.75-1.75,4.58,0,6.33
				c1.75,1.75,4.58,1.75,6.33,0l35.24-35.24c0.84-0.84,1.31-1.98,1.31-3.16C340.87,136.41,340.4,135.28,339.56,134.44z"/>
		</g>
	</g>
</g>
</svg>
