<?xml version="1.0" encoding="utf-8"?>
<!-- Generator: Adobe Illustrator 22.0.0, SVG Export Plug-In . SVG Version: 6.00 Build 0)  -->
<svg version="1.1" id="Layer_1" xmlns="http://www.w3.org/2000/svg" xmlns:xlink="http://www.w3.org/1999/xlink" x="0px" y="0px"
	 viewBox="0 0 512 512" style="enable-background:new 0 0 512 512;" xml:space="preserve">
<style type="text/css">
	.st0{fill:#6FB060;}
</style>
<g>
	<g>
		<g>
			<path class="st0" d="M205.8,73.4C161.1,28.7,73.6,23.5,11.6,23.5C5.2,23.5,0,28.7,0,35.1c0,62,5.2,149.5,49.9,194.2
				c18.9,18.9,47.8,27.3,76.5,27.3c31.2,0,62.1-10,79.4-27.3C239.2,196,245.3,112.8,205.8,73.4z M189.4,212.9
				c-24.9,24.9-93.9,29.1-123.1,0C30.2,176.8,24,103.5,23.3,46.8c56.6,0.7,130,6.9,166.1,43C218.5,119,214.3,188.1,189.4,212.9z"/>
		</g>
	</g>
	<g>
		<g>
			<path class="st0" d="M500.4,69.5c-62,0-149.5,5.2-194.2,49.9c-39.4,39.4-33.3,122.6,0,155.9c17.4,17.3,48.2,27.3,79.4,27.3
				c28.7,0,57.6-8.4,76.5-27.3C506.8,230.6,512,143.1,512,81.1C512,74.7,506.8,69.5,500.4,69.5z M445.6,258.9
				c-29.1,29.1-98.2,24.9-123.1,0c-24.9-24.9-29.1-93.9,0-123.1c36.1-36.1,109.5-42.4,166.1-43C488,149.5,481.7,222.8,445.6,258.9z"
				/>
		</g>
	</g>
	<g>
		<g>
			<path class="st0" d="M416.4,170.1c-2.7-5.8-10.6-7.8-16.4-5.1c-89.2,41.9-133,115-152.9,190.1c-24.6-159.8-95.8-208.5-126-229.1
				c-3.8-2.6-6.7-4.5-8.3-6.1c-4.5-4.5-11.9-4.5-16.4,0s-4.5,11.9,0,16.4c2.3,2.3,6.3,5.1,11.6,8.8c34,23.3,124.4,85.1,124.4,331.7
				c0,6.4,5.2,11.6,11.6,11.6s11.6-5.2,11.6-11.6c0-99.6,26.8-230.9,154.2-290.8l1.9-0.9C417.6,182.4,419.2,175.9,416.4,170.1z"/>
		</g>
	</g>
</g>
</svg>
