<?xml version="1.0" encoding="utf-8"?>
<!-- Generator: Adobe Illustrator 23.0.1, SVG Export Plug-In . SVG Version: 6.00 Build 0)  -->
<svg version="1.1" id="Layer_1" xmlns="http://www.w3.org/2000/svg" xmlns:xlink="http://www.w3.org/1999/xlink" x="0px" y="0px"
	 viewBox="0 0 313 60" style="enable-background:new 0 0 313 60;" xml:space="preserve">
<style type="text/css">
	.st0{fill:#009EE4;}
	.st1{fill:#FFFFFF;stroke:#009EE4;stroke-width:6;stroke-miterlimit:10;}
	.st2{fill:#FFFFFF;}
	.st3{fill:#56A248;}
</style>
<path class="st0" d="M260.2,50.8H36.5c-3.8,0-6.9-3.1-6.9-6.9V13.5c0-3.8,3.1-6.9,6.9-6.9h223.7c3.8,0,6.9,3.1,6.9,6.9v30.4
	C267.1,47.7,264,50.8,260.2,50.8z"/>
<circle class="st1" cx="231.5" cy="28.8" r="23.7"/>
<g>
	<path class="st2" d="M108.1,28.6c1.7-3.1,3.4-5.9,4.8-8.8c0.7-1.4,1.6-1.4,2.8-1.3c1.4,0.2,0.8,1.4,0.8,2.2c0.1,4.3,0,8.6,0,12.9
		c0,1-0.1,1.7-1.4,1.7c-1.4,0-1.6-0.6-1.6-1.8c0.1-2.8,0-5.7-0.4-8.7c-1.1,2-2.2,4-3.4,5.9c-1,1.8-2.3,1.8-3.3,0
		c-1.2-1.9-2.3-3.9-3.9-5.9c0,2.8,0,5.6,0,8.4c0,1,0.3,2.1-1.5,2.1c-1.6-0.1-1.4-1-1.4-2c0-4.3,0-8.6,0-12.9c0-0.7-0.5-1.8,0.8-2
		c1-0.1,2-0.1,2.6,1.1C104.7,22.6,106.4,25.5,108.1,28.6z"/>
	<path class="st2" d="M134.6,18.7c5.2-1,4.7,4.2,7.3,5.7c2.5-1.5,2.1-6.7,7.2-5.7c-1.5,2.4-2.9,4.7-4.5,6.9c-0.7,1-0.7,1.8,0,2.8
		c1.5,2.1,2.9,4.4,4.5,6.8c-1.9,0.5-3.3,0.4-4.3-1.4c-0.8-1.5-1.9-2.9-2.8-4.2c-2.8,1.6-2.4,6.8-7.4,5.8c1.6-2.4,3-4.7,4.5-6.9
		c0.7-1,0.8-1.7,0-2.8C137.5,23.5,136.1,21.2,134.6,18.7z"/>
	<path class="st2" d="M156.7,26.8c0-2.3,0-4.5,0-6.8c0-1,0.2-1.5,1.4-1.5c1.1,0,1.7,0.3,1.6,1.5c-0.1,3.6,0.1,7.2-0.1,10.8
		c-0.1,1.6,0.5,2.1,2.1,2c1.4-0.1,2.9,0,4.3,0c0.8,0,1.5,0.1,1.5,1.2c0,1-0.4,1.4-1.3,1.3c-2.7,0-5.4-0.1-8.1,0
		c-1.2,0-1.3-0.6-1.3-1.6C156.7,31.5,156.7,29.1,156.7,26.8z"/>
	<path class="st2" d="M174,24.1c2.1-0.8,3,0,3.5,1.9c0.5,1.9,1.3,3.6,2.2,6c0.9-2.4,1.7-4.2,2.2-6.1c0.5-1.9,1.5-2.4,3.5-1.8
		c-1.4,3.5-2.7,7-4.2,10.4c-0.6,1.3-2.6,1.2-3.2-0.1C176.7,31,175.4,27.6,174,24.1z"/>
	<path class="st2" d="M74,27.1c0,2.3-0.1,4.7,0,7c0,1.2-0.5,1.3-1.5,1.3c-0.9,0-1.6-0.1-1.6-1.3c0-4.8,0-9.5,0-14.3
		c0-1.2,0.6-1.3,1.6-1.3c0.9,0,1.6,0.1,1.5,1.3C74,22.2,74,24.6,74,27.1z"/>
	<path class="st2" d="M76.9,29.5c0-1.4,0-2.9,0-4.3c0-1.2,1.8-2.1,2.3-1.2c0.8,1.6,1.3,0.6,2,0.2c0.7-0.3,1.5-0.7,2.1-0.3
		c0.3,0.3,0.2,1.1,0.3,1.7c0.1,1.1-0.8,0.8-1.4,1c-1.8,0.4-2.5,1.6-2.6,3.3c-0.1,1.4,0,2.7,0,4.1c0,0.8-0.1,1.4-1.2,1.4
		c-1,0-1.5-0.3-1.5-1.4C76.9,32.5,76.9,31,76.9,29.5z"/>
	<path class="st2" d="M85.2,29.7c0-1.5,0-3,0-4.5c0-0.5-0.2-1.2,0.6-1.2c0.6-0.1,1.5-0.3,1.7,0.2c0.5,1.4,1,0.8,1.7,0.3
		c0.7-0.5,1.6-0.9,2.3-0.5c0.5,0.3,0.2,1.1,0.3,1.7c0.1,1.3-0.9,0.9-1.6,1.1c-1.6,0.4-2.3,1.7-2.4,3.2c-0.1,1.4-0.1,2.9,0,4.3
		c0,1-0.5,1.3-1.4,1.2c-0.9,0-1.2-0.4-1.2-1.2C85.3,32.7,85.2,31.2,85.2,29.7z"/>
	<path class="st2" d="M96.8,29.6c0,1.5,0,3,0,4.5c0,1-0.3,1.4-1.3,1.3c-0.9,0-1.4-0.2-1.4-1.3c0-3,0-6,0-9c0-1,0.4-1.3,1.3-1.3
		c1.1-0.1,1.4,0.4,1.4,1.5C96.7,26.7,96.8,28.1,96.8,29.6z"/>
	<path class="st2" d="M172,29.7c0,1.4,0,2.8,0,4.3c0,0.8-0.1,1.4-1.2,1.4c-1,0-1.5-0.2-1.5-1.4c0.1-2.9,0.1-5.9,0-8.8
		c0-1.1,0.4-1.4,1.4-1.4c1,0,1.3,0.4,1.3,1.3C172,26.7,172,28.2,172,29.7z"/>
	<path class="st2" d="M172.5,20.2c-0.1,1.2-0.7,1.8-1.7,1.9c-1.1,0.1-1.8-0.5-1.8-1.6c-0.1-1.1,0.6-1.9,1.8-1.9
		C171.7,18.6,172.4,19.3,172.5,20.2z"/>
	<path class="st2" d="M97.2,20.4c-0.1,1-0.6,1.7-1.7,1.7c-1.2,0.1-1.8-0.7-1.8-1.8c0-1,0.7-1.7,1.8-1.6
		C96.5,18.7,97.2,19.3,97.2,20.4z"/>
	<path class="st2" d="M132.6,33.9c-1.8-4.7-3.5-9.3-5.2-14c-0.4-1-0.8-1.5-1.9-1.5c-1.2,0-1.6,0.5-1.9,1.5
		c-1.7,4.6-3.4,9.2-5.1,13.8c-0.2,0.5-0.8,1.3,0,1.5c0.8,0.2,1.8,0.5,2.5-0.5c0.2-0.3,0.3-0.7,0.4-1c0.3-1.8,1.4-2.3,3.1-2.1
		c0.7,0.1,1.4,0.1,2,0c1.8-0.3,2.9,0.3,3.2,2.2c0.2,1,0.6,1.7,1.9,1.5C132.8,35.7,133,35.2,132.6,33.9z M125.3,29.4
		c-2.3,0.2-2.5-0.5-1.7-2.4c0.7-1.4,1.1-2.9,1.8-4.8c0.7,1.9,1.2,3.2,1.6,4.6C128,29.3,128,29.2,125.3,29.4z"/>
	<path class="st2" d="M190.2,30.6c0.9-0.1,1.8,0,2.7,0c0,0,0,0,0,0c1,0,2.1,0,3.2,0c1,0,1.3-0.6,1.2-1.5c-0.1-2.5-2.4-5-4.8-5.3
		c-2.9-0.3-5.1,0.8-6.1,3.2c-1.1,2.6-0.5,5.7,1.5,7.3c2,1.6,5.3,1.8,7.4,0.4c0.5-0.4,1.6-0.7,0.9-1.7c-0.5-0.7-1.2-1.2-2.3-0.5
		c-1.3,0.9-2.9,0.8-4.2-0.2c-0.4-0.3-0.9-0.7-0.8-1.3C189.1,30.3,189.8,30.6,190.2,30.6z M191.7,26.1c1.2,0,2.4,0.6,2.3,1.6
		c-0.1,1.4-1.7,0.3-2.5,0.8c-0.9-0.4-2.5,0.5-2.5-0.6C188.9,26.7,190.3,26.1,191.7,26.1z"/>
</g>
<path class="st3" d="M242.1,34.5h-0.8V18.8c0-0.4-0.3-0.7-0.7-0.7h-3c-0.4,0-0.7,0.3-0.7,0.7v15.7h-1.5V23.3c0-0.4-0.3-0.7-0.7-0.7
	h-3c-0.4,0-0.7,0.3-0.7,0.7v11.3h-1.5v-5.3c0-0.4-0.3-0.7-0.7-0.7h-3c-0.4,0-0.7,0.3-0.7,0.7v5.3h-1.5v-8.3c0-0.4-0.3-0.7-0.7-0.7
	h-3c-0.4,0-0.7,0.3-0.7,0.7v8.3h-0.8c-0.4,0-0.7,0.3-0.7,0.7c0,0.4,0.3,0.7,0.7,0.7H242c0.4,0,0.7-0.3,0.7-0.7
	C242.8,34.9,242.5,34.5,242.1,34.5z"/>
</svg>
