<?xml version="1.0" encoding="utf-8"?>
<!-- Generator: Adobe Illustrator 23.0.1, SVG Export Plug-In . SVG Version: 6.00 Build 0)  -->
<svg version="1.1" id="Layer_1" xmlns="http://www.w3.org/2000/svg" xmlns:xlink="http://www.w3.org/1999/xlink" x="0px" y="0px"
	 viewBox="0 0 400 400" style="enable-background:new 0 0 400 400;" xml:space="preserve">
<style type="text/css">
	.st0{fill:#FFFFFF;}
	.st1{fill:#6FB060;}
</style>
<circle class="st0" cx="200" cy="199" r="190"/>
<g>
	<g>
		<g>
			<path class="st1" d="M165.57,200.27L268.98,96.86c2.85-2.84,4.41-6.64,4.41-10.69c0-4.05-1.57-7.85-4.41-10.69l-9.06-9.06
				c-2.84-2.85-6.64-4.42-10.69-4.42s-7.85,1.57-10.69,4.42L115.41,189.54c-2.86,2.85-4.42,6.67-4.41,10.72
				c-0.01,4.07,1.55,7.88,4.41,10.74l123.01,123.01c2.85,2.85,6.64,4.42,10.69,4.42c4.05,0,7.85-1.57,10.69-4.42l9.06-9.06
				c5.89-5.89,5.89-15.49,0-21.38L165.57,200.27z"/>
		</g>
	</g>
</g>
</svg>
