<?xml version="1.0" encoding="utf-8"?>
<!-- Generator: Adobe Illustrator 23.0.1, SVG Export Plug-In . SVG Version: 6.00 Build 0)  -->
<svg version="1.1" id="Layer_1" xmlns="http://www.w3.org/2000/svg" xmlns:xlink="http://www.w3.org/1999/xlink" x="0px" y="0px"
	 viewBox="0 0 400 400" style="enable-background:new 0 0 400 400;" xml:space="preserve">
<style type="text/css">
	.st0{fill:#FFFFFF;}
	.st1{fill:#D74DB8;}
</style>
<circle class="st0" cx="200" cy="199" r="190"/>
<g>
	<path class="st1" d="M325,195.64c-0.03-21.44-16.74-39.15-38.14-40.41v-0.12c0-7.9-6.4-14.3-14.3-14.3h-28.61v-33.37
		c0-13.17-10.67-23.84-23.84-23.84c-13.17,0-23.84,10.67-23.84,23.84v33.37h-28.61c-7.9,0-14.3,6.4-14.3,14.3v39.67l-56.39-30.55
		c1.38-10.28-2.11-20.62-9.44-27.96c-1.86-1.86-4.88-1.86-6.74,0l-40.45,40.46c-1.86,1.86-1.86,4.88,0,6.74
		c8.78,8.77,21.69,11.95,33.54,8.27l79.49,70.4v36c0,7.9,6.4,14.3,14.3,14.3h104.89c7.9,0,14.3-6.4,14.3-14.3v-62.1
		C308.26,234.79,324.97,217.08,325,195.64z M205.81,107.44c0-7.9,6.4-14.3,14.3-14.3c7.9,0,14.3,6.4,14.3,14.3v33.37h-28.61V107.44z
		 M167.66,150.35h104.89c2.63,0,4.77,2.13,4.77,4.77V274.2H162.9V155.12C162.9,152.48,165.03,150.35,167.66,150.35z M50.78,179.77
		l33.04-33.04c6.26,9.45,5,22-3.02,30.02C72.78,184.77,60.23,186.03,50.78,179.77z M83.09,187.18c1.58-1.1,3.07-2.34,4.43-3.7
		c2.83-2.84,5.13-6.18,6.77-9.85l59.07,32.02v43.78L83.09,187.18z M272.55,302.92H167.66c-2.64,0-4.77-2.13-4.77-4.77v-14.41h114.43
		v14.41C277.32,300.78,275.19,302.92,272.55,302.92z M286.86,226.54v-61.8c16.15,1.24,28.62,14.7,28.62,30.9
		C315.48,211.84,303.01,225.3,286.86,226.54z"/>
</g>
</svg>
