<?xml version="1.0" encoding="utf-8"?>
<!-- Generator: Adobe Illustrator 23.0.1, SVG Export Plug-In . SVG Version: 6.00 Build 0)  -->
<svg version="1.1" id="Layer_1" xmlns="http://www.w3.org/2000/svg" xmlns:xlink="http://www.w3.org/1999/xlink" x="0px" y="0px"
	 viewBox="0 0 313 60" style="enable-background:new 0 0 313 60;" xml:space="preserve">
<style type="text/css">
	.st0{fill:#6FB060;}
	.st1{fill:#33547D;}
	.st2{fill:#FFFFFF;}
</style>
<g>
	<path class="st0" d="M283.28,42.44H26.78C19.17,42.44,13,36.27,13,28.66l0,0c0-7.61,6.17-13.78,13.78-13.78h256.5
		c7.61,0,13.78,6.17,13.78,13.78l0,0C297.06,36.27,290.89,42.44,283.28,42.44z"/>
	<g>
		<circle class="st1" cx="261.62" cy="29.5" r="18"/>
		<path class="st0" d="M261.62,7c-12.41,0-22.5,10.09-22.5,22.5s10.1,22.5,22.5,22.5s22.5-10.09,22.5-22.5S274.03,7,261.62,7z
			 M261.62,49.75c-11.18,0-20.25-9.07-20.25-20.25s9.07-20.25,20.25-20.25s20.25,9.07,20.25,20.25S272.81,49.75,261.62,49.75z"/>
		<path class="st0" d="M261.62,9.25c-11.18,0-20.25,9.07-20.25,20.25s9.07,20.25,20.25,20.25s20.25-9.07,20.25-20.25
			S272.81,9.25,261.62,9.25z M261.62,47.5c-9.93,0-18-8.07-18-18s8.07-18,18-18s18,8.07,18,18S271.55,47.5,261.62,47.5z"/>
	</g>
	<path class="st2" d="M272.17,35.21h-0.76V20.24c0-0.39-0.32-0.71-0.71-0.71h-2.83c-0.39,0-0.71,0.32-0.71,0.71v14.98h-1.42V24.49
		c0-0.39-0.32-0.71-0.71-0.71h-2.83c-0.39,0-0.71,0.32-0.71,0.71v10.72h-1.42v-5.05c0-0.39-0.32-0.71-0.71-0.71h-2.83
		c-0.39,0-0.71,0.32-0.71,0.71v5.05h-1.42v-7.89c0-0.39-0.32-0.71-0.71-0.71h-2.83c-0.39,0-0.71,0.32-0.71,0.71v7.89h-0.76
		c-0.39,0-0.71,0.32-0.71,0.71s0.32,0.71,0.71,0.71h22.77c0.39,0,0.71-0.32,0.71-0.71S272.56,35.21,272.17,35.21z"/>
	<g>
		<path class="st2" d="M183.94,29.29c1.03-1.86,2.01-3.49,2.84-5.2c0.39-0.8,0.96-0.85,1.64-0.74c0.84,0.14,0.49,0.84,0.49,1.3
			c0.03,2.54,0.01,5.09,0.02,7.63c0,0.6-0.03,1.02-0.83,1.03c-0.82,0.02-0.96-0.35-0.94-1.05c0.04-1.68,0.01-3.37-0.24-5.15
			c-0.67,1.17-1.32,2.35-2.01,3.51c-0.62,1.05-1.33,1.05-1.97-0.01c-0.69-1.15-1.33-2.31-2.28-3.46c0,1.65,0,3.29,0,4.94
			c0,0.6,0.18,1.25-0.86,1.22c-0.95-0.03-0.8-0.61-0.8-1.17c0-2.54-0.02-5.09,0.01-7.63c0-0.42-0.31-1.07,0.48-1.17
			c0.62-0.08,1.18-0.08,1.56,0.67C181.93,25.75,182.91,27.43,183.94,29.29z"/>
		<path class="st2" d="M199.56,23.45c3.07-0.61,2.75,2.5,4.29,3.34c1.49-0.91,1.23-3.94,4.24-3.36c-0.91,1.42-1.74,2.77-2.65,4.07
			c-0.43,0.62-0.4,1.07,0.02,1.67c0.9,1.27,1.72,2.58,2.65,4c-1.15,0.29-1.97,0.26-2.55-0.83c-0.47-0.89-1.11-1.7-1.65-2.51
			c-1.63,0.93-1.39,4-4.4,3.4c0.92-1.42,1.75-2.76,2.65-4.06c0.42-0.59,0.47-1.02,0.02-1.65C201.3,26.25,200.5,24.92,199.56,23.45z"
			/>
		<path class="st2" d="M212.62,28.22c0-1.34,0.02-2.67-0.01-4.01c-0.01-0.59,0.12-0.9,0.8-0.9c0.66,0,0.98,0.19,0.97,0.9
			c-0.03,2.14,0.03,4.27-0.03,6.41c-0.03,0.96,0.31,1.26,1.22,1.19c0.84-0.07,1.69,0,2.54-0.02c0.5-0.01,0.86,0.06,0.87,0.7
			c0,0.57-0.22,0.8-0.79,0.79c-1.6-0.02-3.21-0.03-4.81,0c-0.71,0.01-0.78-0.37-0.77-0.93C212.63,30.98,212.62,29.6,212.62,28.22z"
			/>
		<path class="st2" d="M222.89,26.64c1.23-0.47,1.78-0.02,2.09,1.11c0.3,1.1,0.77,2.15,1.28,3.54c0.52-1.41,1.01-2.49,1.31-3.62
			c0.3-1.1,0.88-1.44,2.06-1.05c-0.82,2.06-1.6,4.14-2.47,6.17c-0.33,0.77-1.56,0.72-1.89-0.07
			C224.44,30.71,223.68,28.67,222.89,26.64z"/>
		<path class="st2" d="M163.79,28.38c0,1.38-0.03,2.76,0.01,4.14c0.02,0.71-0.32,0.79-0.89,0.79c-0.56-0.01-0.94-0.07-0.94-0.78
			c0.02-2.81,0.02-5.62,0-8.42c-0.01-0.7,0.36-0.79,0.92-0.79s0.93,0.06,0.9,0.78C163.76,25.52,163.79,26.95,163.79,28.38z"/>
		<path class="st2" d="M165.48,29.81c0-0.85-0.02-1.69,0.01-2.54c0.02-0.69,1.09-1.22,1.33-0.71c0.46,0.97,0.79,0.33,1.19,0.12
			c0.41-0.2,0.88-0.44,1.25-0.15c0.19,0.16,0.12,0.66,0.15,1.01c0.05,0.64-0.46,0.5-0.82,0.58c-1.04,0.22-1.45,0.96-1.51,1.93
			c-0.04,0.8-0.02,1.6-0.01,2.4c0.01,0.5-0.06,0.85-0.7,0.85c-0.6-0.01-0.91-0.17-0.89-0.83C165.51,31.59,165.48,30.7,165.48,29.81z
			"/>
		<path class="st2" d="M170.42,29.91c0-0.89-0.01-1.78,0-2.67c0-0.29-0.1-0.68,0.36-0.73c0.34-0.04,0.89-0.19,0.99,0.11
			c0.27,0.82,0.57,0.45,0.98,0.16c0.4-0.28,0.92-0.53,1.37-0.27c0.3,0.17,0.13,0.66,0.15,1.01c0.06,0.74-0.55,0.52-0.92,0.63
			c-0.97,0.26-1.34,0.98-1.4,1.89c-0.05,0.84-0.04,1.69-0.02,2.54c0.02,0.61-0.3,0.74-0.83,0.73c-0.52-0.01-0.71-0.22-0.7-0.72
			C170.44,31.69,170.42,30.8,170.42,29.91z"/>
		<path class="st2" d="M177.24,29.86c0,0.89-0.02,1.78,0.01,2.67c0.02,0.57-0.18,0.8-0.77,0.78c-0.52-0.02-0.84-0.12-0.84-0.74
			c0.02-1.78,0.02-3.56,0-5.34c-0.01-0.59,0.24-0.75,0.79-0.77c0.67-0.03,0.84,0.25,0.81,0.86
			C177.21,28.17,177.24,29.01,177.24,29.86z"/>
		<path class="st2" d="M221.71,29.92c0,0.84-0.01,1.68,0.01,2.53c0.01,0.5-0.05,0.85-0.7,0.85c-0.58-0.01-0.91-0.12-0.9-0.8
			c0.03-1.73,0.03-3.46,0-5.19c-0.01-0.64,0.22-0.85,0.85-0.84c0.59,0.01,0.77,0.24,0.75,0.79
			C221.68,28.15,221.71,29.04,221.71,29.92z"/>
		<path class="st2" d="M221.98,24.32c-0.04,0.72-0.39,1.08-1,1.12c-0.63,0.04-1.04-0.32-1.09-0.93c-0.05-0.67,0.38-1.12,1.04-1.12
			C221.53,23.4,221.91,23.79,221.98,24.32z"/>
		<path class="st2" d="M177.5,24.42c-0.06,0.61-0.38,1-1.01,1.02c-0.72,0.03-1.08-0.44-1.06-1.09c0.02-0.6,0.44-1.01,1.05-0.97
			C177.05,23.42,177.47,23.77,177.5,24.42z"/>
		<path class="st2" d="M198.38,32.44c-1.05-2.75-2.08-5.5-3.09-8.26c-0.21-0.57-0.48-0.86-1.14-0.86c-0.68,0-0.93,0.31-1.13,0.87
			c-0.99,2.72-2.01,5.43-3,8.15c-0.11,0.3-0.48,0.75,0.02,0.9c0.46,0.14,1.07,0.31,1.45-0.27c0.12-0.18,0.2-0.41,0.23-0.62
			c0.18-1.05,0.81-1.37,1.81-1.22c0.39,0.06,0.81,0.06,1.2,0c1.05-0.15,1.71,0.17,1.89,1.3c0.09,0.57,0.37,1.02,1.12,0.86
			C198.5,33.46,198.66,33.17,198.38,32.44z M194.11,29.74c-1.34,0.09-1.5-0.32-0.98-1.44c0.39-0.83,0.63-1.72,1.04-2.86
			c0.39,1.11,0.68,1.92,0.97,2.74C195.68,29.72,195.67,29.63,194.11,29.74z"/>
		<path class="st2" d="M232.46,30.46c0.53-0.03,1.07-0.01,1.61-0.01c0,0,0,0,0-0.01c0.62,0,1.25-0.01,1.87,0
			c0.61,0.01,0.74-0.34,0.72-0.86c-0.07-1.45-1.43-2.96-2.85-3.13c-1.69-0.2-3.02,0.49-3.63,1.89c-0.65,1.51-0.27,3.34,0.88,4.29
			c1.16,0.96,3.16,1.09,4.39,0.24c0.3-0.21,0.97-0.39,0.53-0.98c-0.32-0.44-0.69-0.72-1.33-0.28c-0.79,0.54-1.7,0.49-2.5-0.1
			c-0.24-0.18-0.52-0.43-0.46-0.77C231.77,30.3,232.18,30.47,232.46,30.46z M233.31,27.82c0.7,0.01,1.43,0.38,1.38,0.96
			c-0.08,0.84-0.99,0.15-1.45,0.46c-0.52-0.23-1.45,0.28-1.49-0.35C231.7,28.16,232.52,27.82,233.31,27.82z"/>
	</g>
	<g>
		<polygon class="st2" points="35.81,24.89 33.64,30.22 31.47,24.89 29.64,24.89 32.73,32.46 34.54,32.46 37.63,24.89 		"/>
		<path class="st2" d="M40.32,26.63c-1.66,0-2.93,1.25-2.93,2.96c0,1.75,1.32,3,3.02,3c0.84,0,1.82-0.35,2.33-0.88l-1.03-1.05
			c-0.31,0.3-0.86,0.51-1.31,0.51c-0.67,0-1.17-0.42-1.36-1.04h4.11C43.15,27.98,42.1,26.63,40.32,26.63z M39.06,28.98
			c0.21-0.57,0.72-0.93,1.32-0.93c0.65,0,1.07,0.36,1.22,0.93H39.06z"/>
		<path class="st2" d="M45.85,27.82v-1.06h-1.61v5.7h1.61v-2.72c0-1.07,0.76-1.75,1.95-1.75v-1.36
			C46.93,26.63,46.22,27.08,45.85,27.82z"/>
		<path class="st2" d="M54.34,26.63c-0.79,0-1.58,0.22-2.38,0.63l0.54,1.07c0.45-0.23,0.95-0.41,1.48-0.41
			c0.94,0,1.31,0.53,1.31,1.14v0.11c-0.49-0.19-0.99-0.29-1.45-0.29c-1.32,0-2.37,0.77-2.37,1.9c0,1.09,0.94,1.82,2.15,1.82
			c0.62,0,1.27-0.24,1.68-0.71v0.57h1.55v-3.41C56.85,27.56,55.83,26.63,54.34,26.63z M55.29,30.66c-0.11,0.53-0.69,0.82-1.31,0.82
			c-0.55,0-0.96-0.29-0.96-0.75s0.46-0.8,1.05-0.8c0.44,0,0.86,0.08,1.22,0.21V30.66z"/>
		<path class="st2" d="M61.49,26.63c-0.74,0-1.38,0.33-1.72,0.85v-0.72h-1.61v5.7h1.61v-3.41l0.01,0.03c0-0.62,0.52-1.1,1.19-1.1
			c0.64,0,1.08,0.49,1.08,1.19v3.28h1.55v-3.63C63.61,27.54,62.73,26.63,61.49,26.63z"/>
		<polygon class="st2" points="69.15,24.67 67.71,24.4 66.43,26.12 67.52,26.12 		"/>
		<path class="st2" d="M67.51,26.63c-0.79,0-1.58,0.22-2.38,0.63l0.54,1.07c0.45-0.23,0.95-0.41,1.48-0.41
			c0.94,0,1.31,0.53,1.31,1.14v0.11c-0.49-0.19-0.99-0.29-1.45-0.29c-1.32,0-2.37,0.77-2.37,1.9c0,1.09,0.94,1.82,2.15,1.82
			c0.62,0,1.27-0.24,1.68-0.71v0.57h1.55v-3.41C70.01,27.56,69,26.63,67.51,26.63z M68.46,30.66c-0.11,0.53-0.69,0.82-1.31,0.82
			c-0.55,0-0.96-0.29-0.96-0.75s0.46-0.8,1.05-0.8c0.44,0,0.86,0.08,1.22,0.21C68.46,30.14,68.46,30.66,68.46,30.66z"/>
		<rect x="71.37" y="24.75" class="st2" width="1.61" height="7.7"/>
		<path class="st2" d="M75.18,24.24c-0.5,0-0.88,0.41-0.88,0.86c0,0.49,0.39,0.88,0.88,0.88c0.47,0,0.86-0.4,0.86-0.88
			C76.04,24.64,75.65,24.24,75.18,24.24z"/>
		<rect x="74.36" y="26.76" class="st2" width="1.61" height="5.7"/>
		<path class="st2" d="M79.75,28.92c-0.77-0.21-1-0.3-1-0.61c0-0.2,0.28-0.34,0.67-0.34c0.49,0,1.08,0.19,1.6,0.51l0.65-1.15
			c-0.63-0.42-1.43-0.71-2.25-0.71c-1.34,0-2.24,0.77-2.23,1.85c0.01,1.12,0.91,1.44,2.08,1.73c0.58,0.15,1,0.26,1,0.62
			c0,0.25-0.31,0.43-0.74,0.43c-0.76,0-1.4-0.28-1.91-0.64l-0.69,1.11c0.68,0.55,1.65,0.86,2.57,0.86c1.4,0,2.31-0.72,2.31-1.84
			C81.82,29.5,80.73,29.17,79.75,28.92z"/>
		<path class="st2" d="M83.71,24.24c-0.5,0-0.88,0.41-0.88,0.86c0,0.49,0.39,0.88,0.88,0.88c0.47,0,0.86-0.4,0.86-0.88
			C84.57,24.64,84.18,24.24,83.71,24.24z"/>
		<rect x="82.89" y="26.76" class="st2" width="1.61" height="5.7"/>
		<path class="st2" d="M88.28,28.92c-0.77-0.21-1-0.3-1-0.61c0-0.2,0.28-0.34,0.67-0.34c0.49,0,1.08,0.19,1.6,0.51l0.65-1.15
			c-0.63-0.42-1.43-0.71-2.25-0.71c-1.34,0-2.24,0.77-2.23,1.85c0.01,1.12,0.91,1.44,2.08,1.73c0.58,0.15,1,0.26,1,0.62
			c0,0.25-0.31,0.43-0.74,0.43c-0.76,0-1.4-0.28-1.91-0.64l-0.69,1.11c0.68,0.55,1.65,0.86,2.57,0.86c1.4,0,2.31-0.72,2.31-1.84
			C90.35,29.5,89.26,29.17,88.28,28.92z"/>
		<path class="st2" d="M98.76,27.58c-0.45-0.6-1.11-0.95-1.92-0.95c-1.52,0-2.62,1.23-2.62,2.98s1.1,2.99,2.62,2.99
			c0.8,0,1.47-0.35,1.92-0.95v0.82h1.61v-7.7h-1.61V27.58z M97.3,31.23c-0.89,0-1.52-0.67-1.52-1.63c0-0.95,0.63-1.62,1.52-1.62
			c0.85,0,1.45,0.67,1.45,1.62C98.76,30.56,98.15,31.23,97.3,31.23z"/>
		<path class="st2" d="M104.39,26.63c-1.66,0-2.93,1.25-2.93,2.96c0,1.75,1.32,3,3.02,3c0.84,0,1.82-0.35,2.33-0.88l-1.03-1.05
			c-0.31,0.3-0.86,0.51-1.31,0.51c-0.67,0-1.17-0.42-1.36-1.04h4.11C107.22,27.98,106.17,26.63,104.39,26.63z M103.13,28.98
			c0.21-0.57,0.72-0.93,1.32-0.93c0.65,0,1.07,0.36,1.22,0.93H103.13z"/>
		<path class="st2" d="M113.76,28.92c-0.77-0.21-1-0.3-1-0.61c0-0.2,0.28-0.34,0.67-0.34c0.49,0,1.08,0.19,1.6,0.51l0.65-1.15
			c-0.63-0.42-1.43-0.71-2.25-0.71c-1.34,0-2.24,0.77-2.23,1.85c0.01,1.12,0.91,1.44,2.08,1.73c0.58,0.15,1,0.26,1,0.62
			c0,0.25-0.31,0.43-0.74,0.43c-0.76,0-1.4-0.28-1.91-0.64l-0.69,1.11c0.68,0.55,1.65,0.86,2.57,0.86c1.4,0,2.31-0.72,2.31-1.84
			C115.84,29.5,114.75,29.17,113.76,28.92z"/>
		<path class="st2" d="M120.7,30.17l-0.01-0.03c0,0.62-0.52,1.1-1.19,1.1c-0.64,0-1.08-0.48-1.08-1.19v-3.28h-1.55v3.63
			c0,1.29,0.88,2.2,2.12,2.2c0.74,0,1.38-0.33,1.72-0.85v0.72h1.61v-5.7h-1.61L120.7,30.17L120.7,30.17z"/>
		<path class="st2" d="M126.29,26.63c-1.66,0-2.93,1.25-2.93,2.96c0,1.75,1.32,3,3.02,3c0.84,0,1.82-0.35,2.33-0.88l-1.03-1.05
			c-0.31,0.3-0.86,0.51-1.31,0.51c-0.67,0-1.17-0.42-1.36-1.04h4.11C129.12,27.98,128.08,26.63,126.29,26.63z M125.04,28.98
			c0.21-0.57,0.72-0.93,1.32-0.93c0.65,0,1.07,0.36,1.22,0.93H125.04z"/>
		<rect x="130.21" y="24.75" class="st2" width="1.61" height="7.7"/>
		<path class="st2" d="M136.02,26.63c-1.7,0-3.12,1.36-3.12,2.98c0,1.62,1.42,2.99,3.12,2.99c1.69,0,3.1-1.37,3.1-2.99
			C139.12,27.98,137.71,26.63,136.02,26.63z M136.02,31.23c-0.86,0-1.58-0.75-1.58-1.63s0.72-1.62,1.58-1.62
			c0.85,0,1.56,0.74,1.56,1.62S136.87,31.23,136.02,31.23z"/>
		<path class="st2" d="M145.89,26.63c-1.66,0-2.93,1.25-2.93,2.96c0,1.75,1.32,3,3.02,3c0.84,0,1.82-0.35,2.33-0.88l-1.03-1.05
			c-0.31,0.3-0.86,0.51-1.31,0.51c-0.67,0-1.17-0.42-1.36-1.04h4.11C148.73,27.98,147.68,26.63,145.89,26.63z M144.64,28.98
			c0.21-0.57,0.72-0.93,1.32-0.93c0.65,0,1.07,0.36,1.22,0.93H144.64z"/>
		<path class="st2" d="M153.11,26.63c-0.74,0-1.38,0.33-1.72,0.85v-0.72h-1.61v5.7h1.61v-3.41l0.01,0.03c0-0.62,0.52-1.1,1.19-1.1
			c0.64,0,1.08,0.49,1.08,1.19v3.28h1.55v-3.63C155.23,27.54,154.34,26.63,153.11,26.63z"/>
	</g>
</g>
</svg>
