<?xml version="1.0" encoding="utf-8"?>
<!-- Generator: Adobe Illustrator 23.0.1, SVG Export Plug-In . SVG Version: 6.00 Build 0)  -->
<svg version="1.1" id="Layer_1" xmlns="http://www.w3.org/2000/svg" xmlns:xlink="http://www.w3.org/1999/xlink" x="0px" y="0px"
	 viewBox="0 0 400 400" style="enable-background:new 0 0 400 400;" xml:space="preserve">
<style type="text/css">
	.st0{fill:#FFFFFF;}
	.st1{fill:#5A9ED0;}
</style>
<circle class="st0" cx="200" cy="199" r="190"/>
<g>
	<path class="st1" d="M154.83,242.67c36.65,0,56.83-21.53,56.83-60.62c0-36.6-51.8-94.78-54.01-97.24c-0.74-0.77-1.76-1.2-2.82-1.2
		c-1.06,0-2.08,0.43-2.82,1.2C149.8,87.27,98,145.46,98,182.05C98,221.14,118.18,242.67,154.83,242.67z M154.83,93.12
		c10.85,12.73,49.25,59.84,49.25,88.93c0,24.2-8.55,53.04-49.25,53.04s-49.25-28.84-49.25-53.04
		C105.58,152.96,143.98,105.85,154.83,93.12z"/>
	<path class="st1" d="M260.9,250.24c21.67,0,34.1-14.46,34.1-39.68c0-23.68-30.05-56.23-31.32-57.61c-0.73-0.74-1.73-1.16-2.77-1.16
		c-1.04,0-2.04,0.42-2.77,1.16c-1.28,1.38-31.32,33.93-31.32,57.61C226.81,235.78,239.23,250.24,260.9,250.24z M260.9,161.25
		c7.31,8.5,26.52,32.46,26.52,49.31c0,21.3-8.92,32.1-26.52,32.1s-26.52-10.8-26.52-32.1C234.38,193.71,253.6,169.75,260.9,161.25z"
		/>
	<path class="st1" d="M205.02,236.37c-0.97,1.1-23.68,27.04-23.68,44.18c0,19.26,9.67,30.31,26.52,30.31
		c16.85,0,26.52-11.05,26.52-30.31c0-17.15-22.71-43.09-23.68-44.18c-0.74-0.78-1.77-1.22-2.84-1.22S205.76,235.59,205.02,236.37z
		 M207.87,303.28c-12.57,0-18.94-7.65-18.94-22.73c0-10.3,11.85-27.06,18.94-35.79c7.09,8.71,18.94,25.48,18.94,35.79
		C226.81,295.63,220.43,303.28,207.87,303.28z"/>
	<path class="st1" d="M146.87,227.5c0.13,0.01,0.25,0.02,0.38,0.02c2.02,0,3.68-1.58,3.78-3.6c0.1-2.02-1.4-3.76-3.41-3.96
		c-7.91-0.4-15.28-4.16-20.24-10.34c-10.08-13.14-6.74-34.32-6.71-34.53c0.28-2.03-1.11-3.91-3.13-4.25c-2.02-0.33-3.94,1-4.34,3
		c-0.17,1-3.93,24.57,8.14,40.35C127.56,222.08,136.85,226.93,146.87,227.5z"/>
	<path class="st1" d="M257.12,235.09c6.99-0.1,13.66-2.97,18.53-7.98c4.22-5.43,5.75-12.48,4.15-19.16
		c-0.39-2.02-2.32-3.36-4.35-3.02c-2.03,0.34-3.42,2.24-3.12,4.27c1.16,4.47,0.27,9.23-2.43,12.98c-3.43,3.33-7.99,5.24-12.77,5.33
		c-2.09,0-3.79,1.7-3.79,3.79S255.02,235.09,257.12,235.09z"/>
	<path class="st1" d="M205.77,288.53c-1.18-0.48-2.09-1.45-2.5-2.66c-0.4-1.21-0.25-2.53,0.41-3.62c0.93-1.87,0.18-4.15-1.7-5.08
		c-1.87-0.94-4.15-0.18-5.08,1.7c-1.56,2.89-1.85,6.3-0.81,9.42c1.04,3.12,3.32,5.67,6.3,7.05c1.87,0.94,4.15,0.18,5.09-1.7
		c0.93-1.87,0.18-4.15-1.7-5.08V288.53z"/>
</g>
</svg>
