<?xml version="1.0" encoding="utf-8"?>
<!-- Generator: Adobe Illustrator 23.0.1, SVG Export Plug-In . SVG Version: 6.00 Build 0)  -->
<svg version="1.1" id="Layer_1" xmlns="http://www.w3.org/2000/svg" xmlns:xlink="http://www.w3.org/1999/xlink" x="0px" y="0px"
	 viewBox="0 0 400 400" style="enable-background:new 0 0 400 400;" xml:space="preserve">
<style type="text/css">
	.st0{fill:#FFFFFF;}
	.st1{fill:#F52727;}
</style>
<circle class="st0" cx="200" cy="199" r="190"/>
<g>
	<path class="st1" d="M293.7,137.41c5.28,0,10.31-2.03,14.16-5.71c3.96-3.79,6.15-8.81,6.15-14.15v-13.24
		c0-3.66-2.96-6.62-6.62-6.62s-6.62,2.96-6.62,6.62v13.24c0,3.53-3.3,6.62-7.06,6.62h-6.62v-6.62c0-3.66-2.96-6.62-6.62-6.62
		c-3.66,0-6.62,2.96-6.62,6.62v6.62h-6.62c-3.66,0-6.62,2.96-6.62,6.62s2.97,6.62,6.62,6.62h6.62v39.73h-26.48v-6.62
		c0-3.66-2.96-6.62-6.62-6.62c-3.66,0-6.62,2.96-6.62,6.62v6.62h-14.99l-1.77-26.48h10.14c10.95,0,19.86-8.91,19.86-19.86v-21.76
		l35.26-12.15c3.46-1.19,5.3-4.96,4.1-8.42c-1.19-3.46-4.96-5.3-8.42-4.1l-30.95,10.66v-4.4c0-3.66-2.96-6.62-6.62-6.62
		c-3.66,0-6.62,2.96-6.62,6.62v20.3h-6.62c-3.65,0-6.62-2.97-6.62-6.62V90.62c0-3.66-2.96-6.62-6.62-6.62s-6.62,2.96-6.62,6.62
		v13.69c0,10.95,8.91,19.86,19.86,19.86h6.62v6.62c0,3.65-2.97,6.62-6.62,6.62h-19.86v-6.62c0-3.66-2.97-6.62-6.62-6.62
		c-3.66,0-6.62,2.96-6.62,6.62v6.62H167.9v-17.15l24.58-24.99c2.56-2.61,2.53-6.8-0.08-9.36c-2.61-2.57-6.8-2.53-9.36,0.08
		l-15.14,15.39V90.62c0-3.66-2.96-6.62-6.62-6.62s-6.62,2.96-6.62,6.62v20.3h-19.86c-3.65,0-6.62-2.97-6.62-6.62V90.62
		c0-3.66-2.96-6.62-6.62-6.62s-6.62,2.96-6.62,6.62v7.06h-20.3c-3.66,0-6.62,2.96-6.62,6.62s2.97,6.62,6.62,6.62h21.44
		c2.73,7.71,10.09,13.24,18.72,13.24h19.86v13.24h-19.86c-3.66,0-6.62,2.96-6.62,6.62s2.96,6.62,6.62,6.62h49.86l-3.52,52.97h-50.68
		c-2.71,0-5.11-1.62-6.13-4.13l-3.71-9.11h27.41c10.95,0,19.86-8.91,19.86-19.86c0-3.66-2.97-6.62-6.62-6.62
		c-3.66,0-6.62,2.96-6.62,6.62c0,3.65-2.97,6.62-6.62,6.62h-32.8l-14.48-35.6c-1.38-3.39-5.24-5.02-8.63-3.64
		c-3.39,1.38-5.02,5.24-3.64,8.63l12.45,30.61h-6.32c-3.66,0-6.62,2.96-6.62,6.62c0,3.66,2.96,6.62,6.62,6.62h11.7l5.73,14.1
		c3.06,7.52,10.28,12.38,18.4,12.38h49.79l-2.64,39.72h-16.34c-10.95,0-19.86-8.91-19.86-19.86c0-3.66-2.96-6.62-6.62-6.62
		s-6.62,2.97-6.62,6.62c0,2.27,0.23,4.48,0.67,6.62H94.62c-3.66,0-6.62,2.97-6.62,6.62c0,3.66,2.96,6.62,6.62,6.62h7.06v6.62
		c0,3.66,2.96,6.62,6.62,6.62c3.66,0,6.62-2.96,6.62-6.62v-6.62h19.86h0.02c6.05,8.04,15.66,13.24,26.47,13.24h15.46l-1.79,26.93
		h-26.91c-3.66,0-6.62,2.96-6.62,6.62s2.97,6.62,6.62,6.62h105.94c3.66,0,6.62-2.96,6.62-6.62s-2.97-6.62-6.62-6.62h-26.91
		l-1.79-26.93h2.21c10.81,0,20.42-5.21,26.47-13.24h0.02h53.41c3.66,0,6.62-2.96,6.62-6.62c0-3.66-2.96-6.62-6.62-6.62h-7.06v-19.86
		c0-3.66-2.96-6.62-6.62-6.62c-3.66,0-6.62,2.96-6.62,6.62v19.86h-27.15c0.44-2.14,0.67-4.35,0.67-6.62c0-3.66-2.97-6.62-6.62-6.62
		c-3.66,0-6.62,2.97-6.62,6.62c0,10.95-8.91,19.86-19.86,19.86h-3.09l-2.64-39.72h32.21c18.25,0,33.11-14.85,33.11-33.11V163.9h20.3
		c3.66,0,6.62-2.97,6.62-6.62c0-3.66-2.96-6.62-6.62-6.62h-20.3v-13.24H293.7z M253.97,203.62h-39.29c-1.83,0-3.58,0.76-4.83,2.1
		c-1.25,1.34-1.89,3.13-1.77,4.96l5.71,86.08h-25.58l9.71-146.1h6.15l2.24,33.55c0.23,3.48,3.12,6.09,6.61,6.09h59.78
		C269.96,198,262.6,203.62,253.97,203.62z"/>
</g>
</svg>
